<?xml version="1.0" encoding="utf-8"?>
<?xml-stylesheet type="text/xsl" href="rss1.xsl"?>
<rss version="2.0" xmlns:atom="http://www.w3.org/2005/Atom" xmlns:content="http://purl.org/rss/1.0/modules/content/" xmlns:dc="http://purl.org/dc/elements/1.1/" xmlns:media="http://search.yahoo.com/mrss/">
<channel>
 <title>Getty</title>
 <link>http://www.gettyimg.com/</link>
 <atom:link href="http://www.gettyimg.com/" rel="self" type="application/rss+xml" />

 
                <item>
                <title><![CDATA[【Singles (lossless)】FLAC - will.i.am &amp; Lil Wayne - THE FORMULA | Qobuz Hi-Res 24bit / 48.0kHz]]></title>
                <link><![CDATA[https://sharemania.us/threads/will-i-am-lil-wayne-the-formula-qobuz-hi-res-24bit-48-0khz.220392/]]></link>
                <description><![CDATA[<article>
<blockquote class="messageText SelectQuoteContainer ugc baseHtml">
<div style="text-align: center"><img src="https://static.qobuz.com/images/covers/sb/yf/llgcdivfzyfsb_600.jpg" class="bbCodeImage LbImage" alt="[​IMG]" data-url="https://static.qobuz.com/images/covers/sb/yf/llgcdivfzyfsb_600.jpg" style=""><br>
<div class="bbCodeBlock bbCodeVfcHH HiddenContent">
<div class="attribution type">Hidden Content:</div>
<blockquote>You must reply before you can see the hidden data contained here.</blockquote>
</div></div>
<div class="messageTextEndMarker">&nbsp;</div>
</blockquote>
</article>]]></description>
                <author><![CDATA[Yennefer]]></author>
                </item>

                
                <item>
                <title><![CDATA[【UPSCALED】Beyoncé - If I Were A Boy (2008) - 1080p Upscaled]]></title>
                <link><![CDATA[https://sharemania.us/threads/beyonc%C3%A9-if-i-were-a-boy-2008-1080p-upscaled.220391/]]></link>
                <description><![CDATA[<article>
<blockquote class="messageText SelectQuoteContainer ugc baseHtml">
<img src="https://i.imgur.com/t79o2T8.jpg" class="bbCodeImage LbImage" alt="[​IMG]" data-url="https://i.imgur.com/t79o2T8.jpg" style=""><br>
<img src="https://i.imgur.com/bhqpNhv.jpg" class="bbCodeImage LbImage" alt="[​IMG]" data-url="https://i.imgur.com/bhqpNhv.jpg" style=""><br>
<img src="https://i.imgur.com/2Sz6rqK.jpg" class="bbCodeImage LbImage" alt="[​IMG]" data-url="https://i.imgur.com/2Sz6rqK.jpg" style=""><br>
<img src="https://i.imgur.com/Peb2HZF.jpg" class="bbCodeImage LbImage" alt="[​IMG]" data-url="https://i.imgur.com/Peb2HZF.jpg" style=""><br>
<br>
<div class="bbCodeBlock bbCodeVfcHH HiddenContent">
<div class="attribution type">Hidden Content:</div>
<blockquote>You must reply before you can see the hidden data contained here.</blockquote>
</div>
<div class="ToggleTriggerAnchor bbCodeSpoilerContainer">
<button type="button" class="button bbCodeSpoilerButton ToggleTrigger Tooltip JsOnly" data-target="> .SpoilerTarget"><span>Spoiler: <span class="SpoilerTitle">MediaInfo</span></span></button>
<div class="SpoilerTarget bbCodeSpoilerText"><span style="font-family: 'Courier New'">General<br>
Format : MPEG-4<br>
Format profile : Base Media / Version 2<br>
Codec ID : mp42 (isom/mp42)<br>
File size : 851 MiB<br>
Duration : 5 min 6 s<br>
Overall bit rate mode : Variable<br>
Overall bit rate : 23.3 Mb/s<br>
<br>
Video<br>
ID : 2<br>
Format : AVC<br>
Format/Info : Advanced Video Codec<br>
Format profile : High@L4.2<br>
Format settings, CABAC : Yes<br>
Format settings, RefFrames : 3 frames<br>
Codec ID : avc1<br>
Codec ID/Info : Advanced Video Coding<br>
Duration : 5 min 6 s<br>
Bit rate mode : Variable<br>
Bit rate : 23.0 Mb/s<br>
Maximum bit rate : 26.0 Mb/s<br>
Width : 1 920 pixels<br>
Height : 1 080 pixels<br>
Display aspect ratio : 16:9<br>
Frame rate mode : Constant<br>
Frame rate : 23.976 (24000/1001) FPS<br>
Standard : NTSC<br>
Color space : YUV<br>
Chroma subsampling : 4:2:0<br>
Bit depth : 8 bits<br>
Scan type : Progressive<br>
Bits/(Pixel*Frame) : 0.462<br>
Stream size : 840 MiB (99%)<br>
Language : English<br>
Color range : Limited<br>
Color primaries : BT.709<br>
Transfer characteristics : BT.709<br>
Matrix coefficients : BT.709<br>
<br>
Audio<br>
ID : 1<br>
Format : AAC<br>
Format/Info : Advanced Audio Codec<br>
Format profile : LC<br>
Codec ID : 40<br>
Duration : 5 min 6 s<br>
Bit rate mode : Variable<br>
Bit rate : 317 kb/s<br>
Maximum bit rate : 426 kb/s<br>
Channel(s) : 2 channels<br>
Channel positions : Front: L R<br>
Sampling rate : 48.0 kHz<br>
Frame rate : 46.875 FPS (1024 SPF)<br>
Compression mode : Lossy<br>
Stream size : 11.6 MiB (1%)<br>
Language : English</span></div>
</div><br>
SOURCE: <a href="https://sharemania.us/threads/beyonc%C3%A9-if-i-were-a-boy-cc-pcm24-prores-486i.190441/" class="internalLink">https://sharemania.us/threads/beyoncé-if-i-were-a-boy-cc-pcm24-prores-486i.190441/</a>
<div class="messageTextEndMarker">&nbsp;</div>
</blockquote>
</article>]]></description>
                <author><![CDATA[lulis]]></author>
                </item>

                </channel></rss>